<svg width="269" height="32" viewBox="0 0 269 32" fill="none" xmlns="http://www.w3.org/2000/svg">
<path d="M20.5914 15.5859C18.9403 14.899 17.2472 14.3206 15.5225 13.8507C14.15 13.4375 13.1089 13.1018 12.4096 12.8178C11.7575 12.5854 11.1581 12.2342 10.6428 11.7849C10.18 11.3821 9.91712 10.8037 9.92764 10.1943C9.90135 9.5849 10.2168 9.00649 10.7479 8.6863C11.4368 8.3093 12.215 8.13371 12.9985 8.16986C14.5286 8.23183 16.0378 8.52104 17.4785 9.03748C19.2295 9.60556 20.9175 10.3492 22.5055 11.2685V11.2995L25.408 5.26748C23.7096 4.21911 21.8692 3.42379 19.9394 2.89186C17.8887 2.30312 15.7643 2.00359 13.6295 2.00359C11.5104 1.96227 9.39655 2.33411 7.4247 3.09844C5.77885 3.72333 4.3486 4.79752 3.3022 6.19707C2.32416 7.57596 1.81937 9.22856 1.85092 10.907C1.85092 12.8075 2.3189 14.331 3.26014 15.4723C4.15404 16.593 5.31613 17.4812 6.64647 18.0545C8.27128 18.7259 9.94342 19.2836 11.6524 19.7277C12.9985 20.0893 14.0501 20.3991 14.8073 20.6573C15.4856 20.8794 16.1166 21.2306 16.6582 21.6902C17.1262 22.124 17.3786 22.7334 17.3523 23.3635C17.3839 24.102 17.0053 24.7992 16.3638 25.1813C15.5435 25.6306 14.6128 25.8475 13.6715 25.8011C11.8048 25.7339 9.96971 25.3156 8.26602 24.5616C6.34675 23.7973 4.56945 22.7231 3.00774 21.3803L0 27.2884C1.87195 28.8067 4.01207 29.9739 6.30994 30.7382C8.64988 31.5645 11.1213 31.9932 13.6084 31.9983C15.6697 32.0293 17.7152 31.6781 19.645 30.9654C21.3434 30.356 22.821 29.2819 23.9147 27.8668C24.9821 26.4363 25.5342 24.701 25.4922 22.9297C25.5553 21.2512 25.0347 19.6038 24.0198 18.2507C23.1207 17.0939 21.9428 16.1798 20.5914 15.5859Z" fill="white"/>
<path d="M65.7916 14.3976H53.8869V2.58154H46.1887V31.5434H53.8869V20.4296H65.7916V31.5434H73.4897V2.58154H65.7916V14.3976Z" fill="white"/>
<path d="M144.687 15.5854C143.036 14.8986 141.343 14.3201 139.618 13.8502C138.24 13.437 137.204 13.091 136.505 12.8173C135.853 12.5901 135.254 12.2389 134.738 11.7844C134.276 11.3816 134.013 10.8032 134.023 10.1938C133.997 9.58441 134.312 9.006 134.843 8.68581C135.527 8.30881 136.311 8.12806 137.094 8.16937C138.624 8.23134 140.133 8.52055 141.574 9.03699C143.325 9.60507 145.013 10.3539 146.601 11.268V11.299L149.504 5.26699C147.805 4.22378 145.965 3.42331 144.035 2.89137C141.984 2.30264 139.86 2.0031 137.725 2.0031C135.606 1.96179 133.492 2.33362 131.52 3.09795C129.874 3.72284 128.444 4.79703 127.398 6.19658C126.42 7.57547 125.915 9.22807 125.946 10.9065C125.946 12.807 126.414 14.3305 127.356 15.4718C128.25 16.5925 129.412 17.4808 130.742 18.054C132.367 18.7254 134.039 19.2883 135.748 19.7273C137.094 20.0888 138.135 20.3986 138.903 20.6568C139.581 20.8789 140.212 21.2301 140.754 21.6897C141.232 22.108 141.5 22.7123 141.49 23.3423C141.521 24.0808 141.143 24.778 140.501 25.1602C139.676 25.6147 138.735 25.8264 137.788 25.7799C135.921 25.7128 134.086 25.2945 132.383 24.5405C130.458 23.7761 128.681 22.7019 127.124 21.3592L124.096 27.2879C125.967 28.8062 128.102 29.9786 130.405 30.7377C132.745 31.564 135.217 31.9927 137.704 31.9978C139.765 32.0288 141.811 31.6776 143.74 30.965C145.434 30.3556 146.916 29.2762 148.01 27.8663C149.078 26.4358 149.63 24.7006 149.588 22.9292C149.651 21.2507 149.13 19.6033 148.115 18.2502C147.216 17.0934 146.038 16.1793 144.687 15.5854Z" fill="white"/>
<path d="M189.887 14.3976H177.983V2.58154H170.284V31.5434H177.983V20.4296H189.887V31.5434H197.586V2.58154H189.887V14.3976Z" fill="white"/>
<path d="M237.632 2.58154H229.745L217.062 31.5434H224.95L227.011 26.4203H239.778L241.797 31.5434H250L237.632 2.58154ZM229.345 20.6362L233.468 10.3075L237.506 20.6362H229.345Z" fill="white"/>
<path d="M103.735 2.58154H96.0371V31.5434H103.735V2.58154Z" fill="white"/>
<path d="M269 10.5C269 4.69875 264.301 0 258.5 0C252.699 0 248 4.69875 248 10.5C248 16.3012 252.699 21 258.5 21C264.301 21 269 16.3012 269 10.5ZM255.507 12.9412L256.211 11.55C256.579 11.865 256.998 12.117 257.45 12.2902C257.849 12.474 258.28 12.5737 258.715 12.5895C258.936 12.6 259.156 12.5475 259.35 12.4373H259.345C259.497 12.348 259.581 12.18 259.576 12.0068C259.576 11.8545 259.513 11.7127 259.403 11.613C259.277 11.5028 259.13 11.4135 258.972 11.361C258.799 11.298 258.552 11.2245 258.237 11.1405C257.839 11.0355 257.445 10.9042 257.067 10.7415C256.757 10.6102 256.484 10.4002 256.274 10.1325C256.043 9.8175 255.922 9.43425 255.943 9.04575C255.938 8.64675 256.053 8.253 256.284 7.92225C256.526 7.58625 256.862 7.329 257.25 7.182C257.712 6.99825 258.206 6.909 258.7 6.9195C259.198 6.9195 259.697 6.993 260.175 7.1295C260.626 7.2555 261.057 7.4445 261.456 7.6965L260.778 9.135C260.406 8.91975 260.012 8.74125 259.603 8.61C259.267 8.484 258.91 8.41575 258.553 8.4C258.369 8.3895 258.185 8.4315 258.028 8.526C257.902 8.5995 257.828 8.736 257.833 8.883C257.828 9.03 257.891 9.1665 258.001 9.261C258.122 9.37125 258.264 9.45525 258.416 9.50775C258.579 9.57075 258.82 9.6495 259.146 9.74925C259.55 9.8595 259.944 9.996 260.327 10.164C260.642 10.3005 260.92 10.521 261.125 10.794C261.361 11.1142 261.482 11.508 261.461 11.907C261.472 12.327 261.346 12.7417 261.099 13.083C260.842 13.419 260.495 13.671 260.096 13.818C259.645 13.986 259.167 14.07 258.684 14.0647C258.101 14.0647 257.524 13.9597 256.978 13.7655C256.442 13.5817 255.943 13.2982 255.507 12.9412Z" fill="url(#paint0_linear_27_999)"/>
<defs>
<linearGradient id="paint0_linear_27_999" x1="269.541" y1="1.99706e-06" x2="255.459" y2="0.476038" gradientUnits="userSpaceOnUse">
<stop stop-color="#E37875"/>
<stop offset="1" stop-color="#EBA872"/>
</linearGradient>
</defs>
</svg>
