<svg width="150" height="20" viewBox="0 0 150 20" fill="none" xmlns="http://www.w3.org/2000/svg">
<g clip-path="url(#clip0_377_19406)">
<path d="M12.6304 9.74088C11.6177 9.31157 10.5791 8.95007 9.52124 8.65638C8.67937 8.39813 8.04078 8.18832 7.61184 8.01082C7.21185 7.86557 6.84419 7.64607 6.52811 7.36526C6.24424 7.11351 6.08299 6.75201 6.08944 6.37113C6.07332 5.99026 6.26681 5.62875 6.59258 5.42863C7.01514 5.19301 7.49247 5.08326 7.97306 5.10586C8.9116 5.14459 9.83731 5.32535 10.721 5.64812C11.795 6.00317 12.8304 6.46795 13.8045 7.04251V7.06188L15.5848 3.29187C14.5431 2.63664 13.4142 2.13956 12.2305 1.80711C10.9726 1.43914 9.66955 1.25194 8.3601 1.25194C7.06028 1.22611 5.76368 1.45851 4.55418 1.93622C3.54465 2.32678 2.66736 2.99814 2.02551 3.87286C1.4256 4.73467 1.11597 5.76754 1.13532 6.81657C1.13532 8.00438 1.42237 8.95657 1.99971 9.66988C2.54802 10.3703 3.26082 10.9254 4.07683 11.2838C5.07346 11.7034 6.09912 12.0519 7.14738 12.3295C7.97306 12.5555 8.61809 12.7491 9.08254 12.9105C9.4986 13.0493 9.88565 13.2688 10.2179 13.5561C10.5049 13.8272 10.6597 14.2081 10.6436 14.6019C10.663 15.0634 10.4308 15.4992 10.0373 15.738C9.53412 16.0188 8.96324 16.1544 8.38586 16.1254C7.24086 16.0834 6.11525 15.8219 5.07024 15.3507C3.89299 14.873 2.80282 14.2016 1.8449 13.3624L0 17.0549C1.14822 18.0039 2.46094 18.7334 3.87041 19.2111C5.30569 19.7275 6.82162 19.9954 8.34716 19.9986C9.61153 20.018 10.8662 19.7985 12.0499 19.3531C13.0917 18.9722 13.998 18.3009 14.6689 17.4164C15.3236 16.5224 15.6622 15.4378 15.6365 14.3308C15.6752 13.2817 15.3559 12.2521 14.7333 11.4064C14.1818 10.6834 13.4593 10.1121 12.6304 9.74088Z" fill="black"/>
<path d="M36.3522 8.99832H29.0501V1.61328H24.3281V19.7144H29.0501V12.7683H36.3522V19.7144H41.0741V1.61328H36.3522V8.99832Z" fill="black"/>
<path d="M75.6302 9.74088C74.6175 9.31163 73.579 8.95006 72.5209 8.65638C71.6757 8.39813 71.0402 8.18188 70.6115 8.01081C70.2115 7.86881 69.8441 7.64931 69.5276 7.36525C69.2442 7.1135 69.0829 6.752 69.089 6.37113C69.0731 5.99026 69.2663 5.62875 69.592 5.42863C70.0116 5.19301 70.4925 5.08004 70.9727 5.10586C71.9112 5.14459 72.8368 5.32534 73.7207 5.64812C74.7947 6.00317 75.8301 6.47119 76.8042 7.0425V7.06188L78.5848 3.29187C77.5427 2.63986 76.4141 2.13957 75.2302 1.80711C73.9722 1.43915 72.6694 1.25194 71.3598 1.25194C70.06 1.22612 68.7633 1.45851 67.5538 1.93622C66.5441 2.32678 65.667 2.99814 65.0254 3.87286C64.4255 4.73467 64.1157 5.76754 64.1348 6.81656C64.1348 8.00438 64.4218 8.95656 64.9996 9.66988C65.548 10.3703 66.2607 10.9255 67.0765 11.2838C68.0733 11.7034 69.0989 12.0552 70.1471 12.3296C70.9728 12.5555 71.6113 12.7491 72.0824 12.9105C72.4982 13.0493 72.8853 13.2688 73.2177 13.5561C73.5109 13.8175 73.6753 14.1952 73.6692 14.5889C73.6882 15.0505 73.4563 15.4863 73.0626 15.7251C72.5565 16.0092 71.9793 16.1415 71.3984 16.1124C70.2532 16.0705 69.1277 15.8091 68.0831 15.3378C66.9023 14.8601 65.8124 14.1887 64.8573 13.3495L63 17.0549C64.1476 18.0039 65.4572 18.7366 66.8698 19.2111C68.3051 19.7275 69.8214 19.9954 71.3469 19.9986C72.6111 20.018 73.8661 19.7985 75.0493 19.3531C76.0884 18.9723 76.9974 18.2976 77.6684 17.4164C78.3235 16.5224 78.6621 15.4379 78.6364 14.3307C78.675 13.2817 78.3554 12.2521 77.7328 11.4064C77.1814 10.6834 76.4588 10.1121 75.6302 9.74088Z" fill="black"/>
<path d="M99.0241 9.38504H91.7224V2H87V20.1012H91.7224V13.155H99.0241V20.1012H103.747V2H99.0241V9.38504Z" fill="black"/>
<path d="M124.617 1.61328H119.78L112 19.7144H116.838L118.103 16.5125H125.934L127.172 19.7144H132.204L124.617 1.61328ZM119.534 12.8974L122.063 6.44201L124.54 12.8974H119.534Z" fill="black"/>
<path d="M54.7218 1.61328H50V19.7144H54.7218V1.61328Z" fill="black"/>
<path d="M150 7.5C150 3.35625 146.644 0 142.5 0C138.356 0 135 3.35625 135 7.5C135 11.6437 138.356 15 142.5 15C146.644 15 150 11.6437 150 7.5ZM140.362 9.24371L140.865 8.25C141.128 8.475 141.427 8.655 141.75 8.77871C142.035 8.91 142.343 8.98121 142.654 8.9925C142.811 9 142.969 8.9625 143.107 8.88379H143.104C143.212 8.82 143.272 8.7 143.269 8.57629C143.269 8.4675 143.224 8.36621 143.145 8.295C143.055 8.21629 142.95 8.1525 142.837 8.115C142.714 8.07 142.537 8.0175 142.312 7.9575C142.028 7.8825 141.746 7.78871 141.476 7.6725C141.255 7.57871 141.06 7.42871 140.91 7.2375C140.745 7.0125 140.659 6.73875 140.674 6.46125C140.67 6.17625 140.752 5.895 140.917 5.65875C141.09 5.41875 141.33 5.235 141.607 5.13C141.937 4.99875 142.29 4.935 142.643 4.9425C142.999 4.9425 143.355 4.995 143.696 5.0925C144.019 5.1825 144.326 5.3175 144.611 5.4975L144.127 6.525C143.861 6.37125 143.58 6.24375 143.288 6.15C143.048 6.06 142.793 6.01125 142.538 6C142.406 5.9925 142.275 6.0225 142.163 6.09C142.073 6.1425 142.02 6.24 142.024 6.345C142.02 6.45 142.065 6.5475 142.144 6.615C142.23 6.69375 142.331 6.75375 142.44 6.79125C142.556 6.83625 142.729 6.8925 142.961 6.96375C143.25 7.0425 143.531 7.14 143.805 7.26C144.03 7.3575 144.229 7.515 144.375 7.71C144.544 7.93871 144.63 8.22 144.615 8.505C144.623 8.805 144.533 9.10121 144.356 9.345C144.173 9.585 143.925 9.765 143.64 9.87C143.318 9.99 142.976 10.05 142.631 10.0462C142.215 10.0462 141.803 9.97121 141.413 9.8325C141.03 9.70121 140.674 9.49871 140.362 9.24371Z" fill="url(#paint0_linear_377_19406)"/>
</g>
<defs>
<linearGradient id="paint0_linear_377_19406" x1="150.386" y1="1.55614e-06" x2="140.328" y2="0.340027" gradientUnits="userSpaceOnUse">
<stop stop-color="#E37875"/>
<stop offset="1" stop-color="#EBA872"/>
</linearGradient>
<clipPath id="clip0_377_19406">
<rect width="150" height="20" fill="white"/>
</clipPath>
</defs>
</svg>
